<svg xmlns="http://www.w3.org/2000/svg" viewBox="0 0 73.76 54.62"><defs><style>.cls-1{fill:#bfb6fd;}</style></defs><title>Asset 1</title><g id="Layer_2" data-name="Layer 2"><g id="Draw_Layer" data-name="Draw Layer"><path class="cls-1" d="M73.29,18.31a3.5,3.5,0,0,0-2.06-1.58h0a3.73,3.73,0,0,0-.46-.09,5.58,5.58,0,0,0-1.53-.09l-1.15.11c-1.19.11-2.38.34-3.57.52-1.54.23-3.08.49-4.62.74C56.91,18.4,54,19,51,19.52l-4.17.77c2.67-3.55,5.35-7.09,8-10.67,1-1.41,2-2.87,2.9-4.35A3.54,3.54,0,0,0,56.46.47,3.44,3.44,0,0,0,54.73,0a3.65,3.65,0,0,0-3.07,1.73,117.31,117.31,0,0,1-7.16,10q-2.45,3.18-4.87,6.38c-.08-.13-.16-.26-.25-.39l-3.67-5.56c-1-1.58-2.22-3.07-3.39-4.55a36.9,36.9,0,0,0-2.49-2.82,23.85,23.85,0,0,0-3.73-3,3,3,0,0,0-1.69-.51A3.77,3.77,0,0,0,21.23,3.1a3.57,3.57,0,0,0-.36,2.75A3.78,3.78,0,0,0,22.51,8l1.12.8a28.12,28.12,0,0,1,3.63,3.92c1.47,2,2.8,4,4.13,6.06C32.17,20,33,21.19,33.7,22.43l-2.5.38a79.55,79.55,0,0,0-11.43-4.5,66.73,66.73,0,0,0-7.49-1.89c-2.49-.47-5.2-.87-7.65,0a8.4,8.4,0,0,0-3.15,2.15A5,5,0,0,0,0,22.63a4.93,4.93,0,0,0,.61,2.15,13.26,13.26,0,0,0,1.12,1.47,9.69,9.69,0,0,0,1.5,1.21,9.2,9.2,0,0,0,1.42.85,24.75,24.75,0,0,0,8.43,2.17,52.51,52.51,0,0,0,8,.28c2.66-.06,5.32-.33,8-.61.37.2.73.41,1.09.62Q26.53,35.92,23,41.14c-.77,1.14-1.59,2.29-2.26,3.5a3.63,3.63,0,0,0,0,3.71A3.67,3.67,0,0,0,24.9,50a4.46,4.46,0,0,0,1.87-1,12,12,0,0,0,1.11-1.34c.25-.34.51-.68.74-1q.9-1.36,1.77-2.73c1-1.64,2.08-3.29,3.16-4.91l2.77-4.11c1.53,1.22,3,2.5,4.4,3.87a51.58,51.58,0,0,1,4.39,4.95c1,1.33,1.9,2.72,2.78,4.14.14.24.29.48.44.71l.21.39c.69,1.25,1.32,2.55,2.12,3.72A4.2,4.2,0,0,0,53,54.48a4,4,0,0,0,4.89-2.78c.06-.35.1-.7.15-1.05a4,4,0,0,0-.54-2,45.29,45.29,0,0,0-3.88-6.53c-.17-.26-.34-.52-.52-.77l-2.29-4C49,34.19,47.23,31,45.41,27.81l9.36-1.65c2.51-.44,5-.91,7.54-1.31l4.35-.7L69,23.79a14.69,14.69,0,0,0,2.2-.4,3.56,3.56,0,0,0,2.06-1.59A3.51,3.51,0,0,0,73.29,18.31ZM6.35,23.1l-.07.06.07-.06Z"/></g></g></svg>