<svg xmlns="http://www.w3.org/2000/svg" viewBox="0 0 46.81 101.18"><defs><style>.cls-1{fill:#bfb6fd;}</style></defs><title>Asset 1</title><g id="Layer_2" data-name="Layer 2"><g id="Draw_Layer" data-name="Draw Layer"><path class="cls-1" d="M18.66,1.46A5.21,5.21,0,0,0,17.2,5,125.15,125.15,0,0,0,17,19.75c.26,4.73.63,9.46.93,14.2.34,5.28.65,10.56.82,15.85.16,4.75,0,9.51-.08,14.26s-.28,9.58-.63,14.37L18,79.65c-1.59-1.9-3.18-3.79-4.8-5.67a67.36,67.36,0,0,0-5.08-5.72,4.81,4.81,0,0,0-5.76-.75A4.82,4.82,0,0,0,.61,74a14.27,14.27,0,0,0,2,2.57l1.76,2,3.23,3.78C9.82,85,12,87.75,14.2,90.47l-.77-1c1.22,1.58,2.47,3.14,3.72,4.7A8.84,8.84,0,0,0,18,98.29a5.31,5.31,0,0,0,2,2.16,6.46,6.46,0,0,0,2.95.72,3.88,3.88,0,0,0,1.87-.38,3.73,3.73,0,0,0,1.48-.19,5.75,5.75,0,0,0,2.45-1.41,21.19,21.19,0,0,0,2.2-3.42c.27-.46.54-.91.82-1.36l1.48-1.72c1.74-2,3.31-4.17,4.84-6.34,1.37-1.94,2.76-3.89,4-5.92,1-1.66,2-3.32,2.87-5,.48-.91.86-1.87,1.25-2.83a7,7,0,0,0,.63-2.67,4.22,4.22,0,0,0-2-3.54,4.17,4.17,0,0,0-5,.64A14.27,14.27,0,0,0,38,69.48L36.8,71.16c-.75,1.08-1.47,2.18-2.2,3.27-1.39,2.07-2.77,4.15-4.22,6.18l-.81,1.13-.8,1.08L27.6,84.25c.08-.94.16-1.88.23-2.82.37-5,.6-10,.79-15s.22-9.8.18-14.7c0-4.64-.32-9.28-.61-13.92-.35-5.36-.78-10.73-1.07-16.1-.08-1.42-.15-2.83-.23-4.25s0-3.06,0-4.58c0-2.64.16-5.28.33-7.91a5,5,0,0,0-8.54-3.54Z"/></g></g></svg>