<?xml version="1.0" encoding="utf-8"?>
<!-- Generator: Adobe Illustrator 23.0.3, SVG Export Plug-In . SVG Version: 6.00 Build 0)  -->
<svg version="1.1" id="Layer_1" xmlns="http://www.w3.org/2000/svg" xmlns:xlink="http://www.w3.org/1999/xlink" x="0px" y="0px"
	 viewBox="0 0 71.7 69.9" style="enable-background:new 0 0 71.7 69.9;" xml:space="preserve">
<style type="text/css">
	.st0{fill:#BFB6FD;}
</style>
<title>Asset 1</title>
<g>
	<g id="Github">
		<g id="github-github">
			<path class="st0" d="M35.8,0C16,0,0,16,0,35.8c0,15.4,9.9,29.2,24.5,34c1.8,0.3,2.5-0.8,2.5-1.7s0-3.7,0-6.7
				c-10,2.2-12.1-4.2-12.1-4.2c-1.6-4.1-4-5.2-4-5.2c-3.3-2.2,0.2-2.2,0.2-2.2c3.6,0.3,5.5,3.7,5.5,3.7c3.2,5.5,8.4,3.9,10.4,3
				c0.2-1.8,1-3.5,2.3-4.8c-8-0.9-16.3-4-16.3-17.7c0-3.6,1.3-7,3.7-9.6c-1.1-3.1-1-6.5,0.3-9.5c0,0,3-1,9.9,3.7
				c5.9-1.6,12.1-1.6,18,0c6.8-4.6,9.8-3.7,9.8-3.7c1.3,3,1.4,6.4,0.3,9.5c2.4,2.6,3.8,6.1,3.7,9.6c0,13.8-8.4,16.8-16.4,17.7
				c1.3,1.1,2.4,3.3,2.4,6.6c0,4.8,0,8.7,0,9.8c0,1,0.7,2.1,2.5,1.7C66,63.7,76.2,43.4,70,24.6C65.1,9.9,51.4-0.1,35.8,0z"/>
			<path class="st0" d="M13.6,51.5c-0.1,0.2-0.4,0.2-0.6,0.1s-0.4-0.4-0.3-0.5c0.1-0.2,0.4-0.2,0.6-0.1C13.5,51,13.7,51.3,13.6,51.5
				z"/>
			<path class="st0" d="M15,53.1c-0.2,0.2-0.5,0.1-0.7-0.2c-0.2-0.2-0.3-0.5-0.1-0.7s0.5-0.1,0.7,0.2S15.2,52.9,15,53.1z"/>
			<path class="st0" d="M16.4,55.1c-0.2,0.2-0.6,0-0.8-0.3s-0.2-0.7,0-0.8s0.6,0,0.8,0.3S16.7,55,16.4,55.1z"/>
			<path class="st0" d="M18.4,57.1c-0.2,0.2-0.6,0.2-0.9-0.1c-0.3-0.2-0.4-0.6-0.2-0.9c0.2-0.2,0.6-0.2,0.9,0.1S18.6,56.9,18.4,57.1
				z"/>
			<path class="st0" d="M21,58.3c-0.1,0.3-0.5,0.4-0.9,0.3s-0.7-0.5-0.6-0.7s0.5-0.4,0.9-0.3S21.1,58,21,58.3z"/>
			<path class="st0" d="M24,58.5c0,0.3-0.3,0.5-0.8,0.5s-0.8-0.2-0.8-0.5s0.3-0.5,0.8-0.5S24,58.2,24,58.5z"/>
			<path class="st0" d="M26.7,58c0,0.3-0.3,0.6-0.7,0.7s-0.8-0.1-0.9-0.4s0.3-0.6,0.7-0.7S26.7,57.7,26.7,58z"/>
		</g>
	</g>
</g>
</svg>
