<svg xmlns="http://www.w3.org/2000/svg" viewBox="0 0 136.01 131.6">
    <defs>
        <style>
        .cls-1 {
            fill: white;
        }

        .cls-2 {
            fill: white;
        }
        </style>
    </defs>
    <title>Artboard 1</title>
    <g id="Draw_Layer" data-name="Draw Layer">
        <path class="cls-1" d="M0,3.62V3.7H0L.08,74.08q0,27.47.07,54.94a2,2,0,0,0,2,2,2,2,0,0,0,2-2v-.68q0-33.47-.08-66.91,0-19.6-.05-39.23v-.06L4,3.62a2,2,0,0,0-2-2,2,2,0,0,0-2,2Z" />
        <path class="cls-1" d="M0,2.93V4.3c0,3,0,6,0,8.94a2,2,0,0,0,2,2,2,2,0,0,0,2-2C4,10,4,6.75,4,3.51H4V2.93a2,2,0,0,0-2-2,2,2,0,0,0-2,2Z" />
    </g>
    <g id="Draw_Layer-2" data-name="Draw Layer">
        <path class="cls-1" d="M17.72,0H2.77a2,2,0,0,0-2,2,2,2,0,0,0,2,2H84.38a2,2,0,0,0,2-2,2,2,0,0,0-2-2Z" />
    </g>
    <g id="Draw_Layer-3" data-name="Draw Layer">
        <path class="cls-1" d="M17.72,127.6H2.77a2,2,0,0,0,0,4H84.38a2,2,0,0,0,0-4Z" />
    </g>
    <g id="Draw_Layer-4" data-name="Draw Layer">
        <path class="cls-2" d="M84.4,2.34l-.08.07h0L30.24,43.19l-27.8,21,0,0L1.27,65a2.17,2.17,0,0,0-.92,1.19,2,2,0,0,0,.2,1.54,2,2,0,0,0,1.19.93,1.93,1.93,0,0,0,1.54-.21l47.88-36.1L73.49,15.55h0L86.42,5.8a2.16,2.16,0,0,0,.92-1.2,2,2,0,0,0-1.4-2.46,2,2,0,0,0-.56-.07,1.7,1.7,0,0,0-1,.27Z" />
    </g>
    <g id="Draw_Layer-5" data-name="Draw Layer">
        <path class="cls-2" d="M5.12,65.15a2,2,0,0,0-1.19.91,2,2,0,0,0-.2,1.55,2.14,2.14,0,0,0,.92,1.19l2.59,2,3.27,2.49v0L57.1,108.85l26.55,20.27a1.94,1.94,0,0,0,1.54.21,2,2,0,0,0,1.4-2.47,2.18,2.18,0,0,0-.92-1.19L45.61,95.08l-33-25.17-.1-.09L6.67,65.35a1.62,1.62,0,0,0-1-.28,2.07,2.07,0,0,0-.57.08Z" />
    </g>
    <g id="Draw_Layer-6" data-name="Draw Layer">
        <path class="cls-1" d="M84.51,1.06a2,2,0,0,0-.59,1.42,2.14,2.14,0,0,0,.59,1.41l40.77,52.23,6.06,7.76.12.17c.26.33.52.65.77,1a1.89,1.89,0,0,0,1.42.59,2,2,0,0,0,1.41-.59,2,2,0,0,0,.59-1.41,2.14,2.14,0,0,0-.59-1.42L98.18,15,87.34,1.06A1.92,1.92,0,0,0,85.92.48a2,2,0,0,0-1.41.58Z" />
    </g>
    <g id="Draw_Layer-7" data-name="Draw Layer">
        <path class="cls-1" d="M133.48,63a2.16,2.16,0,0,0-1.2.92l-.88,1.18v0l-.4.53L93.41,115.88l-9,12,0,0-.24.31-.11.15a1.93,1.93,0,0,0-.2,1.54,2,2,0,0,0,2.46,1.4,2.11,2.11,0,0,0,1.19-.92l.32-.43,37.83-50.55c1.69-2.26,3.38-4.51,5.06-6.77l4.15-5.55h0l.87-1.18a1.89,1.89,0,0,0,.21-1.54,2.06,2.06,0,0,0-.92-1.2,2,2,0,0,0-1-.27,2.33,2.33,0,0,0-.53.07Z" />
    </g>
</svg>