<svg id="Layer_1" data-name="Layer 1" xmlns="http://www.w3.org/2000/svg" viewBox="0 0 71.8 58.22"><defs><style>.cls-1{fill:#bfb6fd;}</style></defs><title>twitter-lavender-1</title><g id="Twitter"><path id="twitter-twitter" class="cls-1" d="M71.8,6.82a27.47,27.47,0,0,1-8.5,2.3A14.52,14.52,0,0,0,69.8,1a31,31,0,0,1-9.3,3.6A14.7,14.7,0,0,0,39.7,4a15,15,0,0,0-4.3,14.1A42.32,42.32,0,0,1,5.1,2.62a14.73,14.73,0,0,0,4.5,19.6,16,16,0,0,1-6.7-1.8v.2A14.67,14.67,0,0,0,14.7,35a17.37,17.37,0,0,1-3.9.5,13.33,13.33,0,0,1-2.8-.3,14.72,14.72,0,0,0,13.8,10.2,29.42,29.42,0,0,1-18.3,6.3c-1.2,0-2.3-.1-3.5-.2a41.48,41.48,0,0,0,22.6,6.7c27,0,41.8-22.4,41.8-41.8v-1.9A31.82,31.82,0,0,0,71.8,6.82Z"/></g></svg>