<svg id="Layer_1" data-name="Layer 1" xmlns="http://www.w3.org/2000/svg" viewBox="0 0 71.7 71.7"><defs><style>.cls-1{fill:#8be4d4;}</style></defs><title>twitter-green-3</title><g id="Layer_2" data-name="Layer 2"><g id="Twitter"><path id="twitter-twitter" class="cls-1" d="M71.7,13.6a27.47,27.47,0,0,1-8.5,2.3,14.52,14.52,0,0,0,6.5-8.1,31,31,0,0,1-9.3,3.6,14.7,14.7,0,0,0-20.8-.6,15,15,0,0,0-4.3,14.1A42.32,42.32,0,0,1,5,9.4,14.73,14.73,0,0,0,9.5,29a16,16,0,0,1-6.7-1.8v.2A14.67,14.67,0,0,0,14.6,41.8a17.37,17.37,0,0,1-3.9.5A13.33,13.33,0,0,1,7.9,42,14.72,14.72,0,0,0,21.7,52.2,29.42,29.42,0,0,1,3.4,58.5c-1.2,0-2.3-.1-3.5-.2A41.48,41.48,0,0,0,22.5,65c27,0,41.8-22.4,41.8-41.8V21.3A31.82,31.82,0,0,0,71.7,13.6Z"/></g></g></svg>