<svg id="Layer_1" data-name="Layer 1" xmlns="http://www.w3.org/2000/svg" viewBox="0 0 74.75 88.5"><defs><style>.cls-1,.cls-2{fill:none;stroke:#171612;stroke-linecap:round;stroke-linejoin:round;}.cls-1{stroke-width:6px;}.cls-2{stroke-width:0.5px;}</style></defs><title>website-logo--favicon</title><g id="Pen"><path id="STROKE_2309579C-04AE-46A3-8916-AE0F6225410A" data-name="STROKE 2309579C-04AE-46A3-8916-AE0F6225410A" class="cls-1" d="M9.7,15.9,9.3,84.2" transform="translate(-6.3)"/><path id="STROKE_43DE7261-2E17-49CA-9116-060ADE1C8C61" data-name="STROKE 43DE7261-2E17-49CA-9116-060ADE1C8C61" class="cls-1" d="M9.7,15.9a.35.35,0,0,0,.2-.1.31.31,0,0,0,.2-.1.35.35,0,0,0,.2-.1.77.77,0,0,0,.3-.1c.2-.1.4-.1.6-.2s.4-.1.6-.1.4-.1.7-.1.5-.1.8-.1.5-.1.8-.1.6-.1.9-.1.8-.1,1.3-.1H27.7c.5,0,1.3.1,2.6.2s2.2.3,2.9.4,1.3.2,1.8.3,1,.2,1.6.3,1,.2,1.4.3a6.37,6.37,0,0,1,.9.2,5.07,5.07,0,0,1,.9.2c.4.1,1,.2,2,.4a28.64,28.64,0,0,1,2.8.7,19.75,19.75,0,0,1,2.6.8,18.41,18.41,0,0,0,1.8.6,4.65,4.65,0,0,1,.9.3c.3.1.7.2,1.2.4a5.89,5.89,0,0,1,1.3.5c.3.1.8.3,1.3.5A13.15,13.15,0,0,1,56.1,22c1,.6,1.7,1,2,1.2s.5.4.8.6a1.79,1.79,0,0,0,.7.5c.2.2.3.3.4.3a7.37,7.37,0,0,1,.6.5c.4.3.8.7,1.3,1.1l1.5,1.2c.5.4.9.7,1.2,1s.9.8,1.7,1.5,1.5,1.4,2,1.9A10,10,0,0,1,69.4,33c.2.3.5.7.9,1.3a7.6,7.6,0,0,1,.8,1.3,11.14,11.14,0,0,1,.9,2.2c.4,1.1.8,2.1,1,2.8s.4,1.2.5,1.6a4.08,4.08,0,0,1,.2.7,5.38,5.38,0,0,1,.1.8,3.22,3.22,0,0,1,.1.8,1.76,1.76,0,0,0,.1.6c0,.3.1.9.1,1.9v2.7a12.48,12.48,0,0,1-.2,2.1,7.07,7.07,0,0,1-.2,1.2c0,.3-.2.9-.4,1.9a20.59,20.59,0,0,1-.7,2.5,12.76,12.76,0,0,0-.4,1.3c-.1.2-.3.7-.7,1.6a21.72,21.72,0,0,1-1,2.1c-.3.5-.5.9-.6,1.1s-.4.6-.7,1.1-.7,1-1,1.4a11.49,11.49,0,0,1-.8,1,5.5,5.5,0,0,1-.7.9,3.81,3.81,0,0,1-.5.6,3.81,3.81,0,0,0-.5.6,14.36,14.36,0,0,1-1.4,1.5l-1.6,1.6c-.4.4-.7.6-1,.9a6.47,6.47,0,0,0-.9.8,10.63,10.63,0,0,1-1.1.9c-.4.3-.7.6-.9.7s-.8.6-1.6,1.2l-1.3,1-.9.6c-.6.4-1.1.7-1.4.9a9.22,9.22,0,0,1-.8.5,11.05,11.05,0,0,1-1.3.7c-.7.4-1.3.7-1.8,1a12.89,12.89,0,0,1-1.2.6,9.25,9.25,0,0,0-1,.5c-.4.2-.8.3-1.2.5a5.39,5.39,0,0,1-1,.3,5.76,5.76,0,0,1-1,.2.76.76,0,0,1-.4.1s-.4.1-1,.2-1.1.2-1.5.3-1,.1-1.7.2-1.4.2-2,.3a10,10,0,0,1-1.6.2c-.5.1-.9.1-1.2.2a5.64,5.64,0,0,0-.7.1H21.7a12.1,12.1,0,0,0-1.9.1H15.7a4.91,4.91,0,0,1-1.1-.1c-.5,0-.9-.1-1.4-.1s-.8-.1-1-.1-.4-.1-.6-.1a4.33,4.33,0,0,1-.5-.1h-.2a.31.31,0,0,1-.2-.1,1,1,0,0,1-.3-.1,3.93,3.93,0,0,1-.6-.2l-.5-.4" transform="translate(-6.3)"/></g><g id="New_Layer_3" data-name="New Layer 3"><path id="STROKE_1EA26136-393A-41A7-9D55-AD495677D165" data-name="STROKE 1EA26136-393A-41A7-9D55-AD495677D165" class="cls-1" d="M55.3,3V5.8A4.12,4.12,0,0,1,55.2,7c0,.3-.1.7-.1,1.1s-.1.8-.1,1.1a3.55,3.55,0,0,1-.2,1c-.1.3-.2,1-.4,2a20.76,20.76,0,0,1-.6,2.4c-.2.6-.3,1-.4,1.3s-.3.8-.5,1.5a13.57,13.57,0,0,1-.9,2.3,20.92,20.92,0,0,1-1,2.1c-.3.6-.6,1.2-1,1.9s-.6,1.1-.7,1.3a6.78,6.78,0,0,1-.6.9c-.3.4-.5.8-.7,1a12.74,12.74,0,0,1-1.1,1.5c-.6.8-1.1,1.6-1.7,2.4s-1.1,1.5-1.4,2-.8,1-1.3,1.6l-1.4,1.7c-.5.5-.8,1-1.2,1.4s-.8,1-1.6,1.9-1.4,1.6-1.9,2.2-1.1,1.1-1.6,1.6-1.1,1-1.6,1.6a21,21,0,0,1-1.7,1.4c-.5.4-1.1.9-1.7,1.4s-1.2.9-1.6,1.2-1.3.9-2.5,1.8a33.49,33.49,0,0,1-3,1.9,8.77,8.77,0,0,0-1.4.8l-1.2.6c-.6.3-1.1.6-1.6.8s-1.3.7-2.7,1.4l-3,1.5a11.82,11.82,0,0,1-1.3.6c-.1.3-.4.4-.7.6a4.2,4.2,0,0,0-.5.2.31.31,0,0,0-.2.1,3.93,3.93,0,0,0-.6.2" transform="translate(-6.3)"/><path id="STROKE_3785C810-D929-4F89-8876-5FB5F0BCAA58" data-name="STROKE 3785C810-D929-4F89-8876-5FB5F0BCAA58" class="cls-1" d="M26.7,50.1l.2-.1c.4-.2.7-.3.9-.4a8.92,8.92,0,0,1,1-.5,10.41,10.41,0,0,1,1.2-.5,6.89,6.89,0,0,0,.8-.3c.2-.1.4-.1.6-.2a4.33,4.33,0,0,0,.5-.1c.2,0,.7-.1,1.7-.2a15,15,0,0,1,3,0c1,.1,1.7.2,2.1.2a9.58,9.58,0,0,1,1.7.5,13.06,13.06,0,0,1,2.1.8l1.8.9c.5.3,1,.6,1.3.8s.8.6,1.5,1.1a4.79,4.79,0,0,0,1.1.8,7.37,7.37,0,0,1,.6.5l.9.9a6.47,6.47,0,0,1,.8.9,8.65,8.65,0,0,1,.7,1,4.45,4.45,0,0,1,.5.8c.1.1.2.3.4.5s.3.6.6,1.1.4.7.4.7l.6,1.2q.6,1.2,1.2,2.7c.5,1.2.8,2,1,2.5l.6,1.5c.2.5.6,1.3,1.1,2.4.8,2,1.4,3.4,1.8,4.4a16,16,0,0,1,.8,2,7.6,7.6,0,0,1,.4,1.1,4.88,4.88,0,0,0,.3.7c.1.1.1.3.2.5l.3.6c.1.2.3.5.5.9s.4.6.5.8a1.76,1.76,0,0,0,.4.5c.1.2.3.3.4.5a6.16,6.16,0,0,0,1.2,1.2,7,7,0,0,0,1.6.9,6.89,6.89,0,0,0,1,.4,8.19,8.19,0,0,0,2.6.2c.7,0,1.3-.1,1.8-.1a3.2,3.2,0,0,1,.7-.1,2,2,0,0,1,.5-.1,2.54,2.54,0,0,1,.7-.2c.2-.1.3-.1.5-.2s.5-.2.9-.4a2,2,0,0,1,.8-.3c.1-.1.3-.1.5-.2l.6-.3a4.88,4.88,0,0,1,.7-.3.92.92,0,0,0,.6-.4" transform="translate(-6.3)"/></g><g id="New_Layer_4" data-name="New Layer 4"><path id="STROKE_BC1E904F-3AFB-4A6F-A280-501751DAC1E7" data-name="STROKE BC1E904F-3AFB-4A6F-A280-501751DAC1E7" class="cls-1" d="M19.4,16.1l-.3,69.4" transform="translate(-6.3)"/></g><g id="New_Layer_5" data-name="New Layer 5"><path id="STROKE_1BD6361D-987B-4B89-B269-3F23D017BBE5" data-name="STROKE 1BD6361D-987B-4B89-B269-3F23D017BBE5" class="cls-2" d="M78.8,79.2l-2,1.2" transform="translate(-6.3)"/><path id="STROKE_44555A8F-3C9F-495A-A729-33E06DACB279" data-name="STROKE 44555A8F-3C9F-495A-A729-33E06DACB279" class="cls-2" d="M78.8,79.2l2,2.7" transform="translate(-6.3)"/><path id="STROKE_9341EF52-25D6-48DE-9BA9-385ADD4A30A5" data-name="STROKE 9341EF52-25D6-48DE-9BA9-385ADD4A30A5" class="cls-2" d="M80.8,81.9l-1.9,1.2" transform="translate(-6.3)"/><path id="STROKE_41F2ABEC-E8AB-4CA5-8E84-F338DCDC9509" data-name="STROKE 41F2ABEC-E8AB-4CA5-8E84-F338DCDC9509" class="cls-2" d="M79,79.7l-.9.5" transform="translate(-6.3)"/><path id="STROKE_DC2837D3-5DB0-4EBF-B651-4494761C79B9" data-name="STROKE DC2837D3-5DB0-4EBF-B651-4494761C79B9" class="cls-2" d="M78.9,79.5l-.8.4" transform="translate(-6.3)"/><path id="STROKE_FDFA57B1-1C48-4A6A-816E-BC2ABA077A48" data-name="STROKE FDFA57B1-1C48-4A6A-816E-BC2ABA077A48" class="cls-2" d="M78.8,79.4l-.8.5" transform="translate(-6.3)"/><path id="STROKE_A352B950-D3D6-4F9A-BC0F-B4AA40545E40" data-name="STROKE A352B950-D3D6-4F9A-BC0F-B4AA40545E40" class="cls-2" d="M79.4,80.1l-.5.2" transform="translate(-6.3)"/><path id="STROKE_7B6F982C-B9F6-4480-A417-867F60D2DEE4" data-name="STROKE 7B6F982C-B9F6-4480-A417-867F60D2DEE4" class="cls-2" d="M79.3,80l-.5.2" transform="translate(-6.3)"/><path id="STROKE_8F420571-3D45-4B22-B34F-9DBC44953E03" data-name="STROKE 8F420571-3D45-4B22-B34F-9DBC44953E03" class="cls-2" d="M79.1,79.9l-.5.2" transform="translate(-6.3)"/><path id="STROKE_50F10F6F-31AC-42DA-BB81-D5E1E4FBD437" data-name="STROKE 50F10F6F-31AC-42DA-BB81-D5E1E4FBD437" class="cls-2" d="M79.3,80.2l-.3.2" transform="translate(-6.3)"/><path id="STROKE_B72F0ABA-B0DB-4AE9-80B0-F5747D06589A" data-name="STROKE B72F0ABA-B0DB-4AE9-80B0-F5747D06589A" class="cls-2" d="M79.6,80.2l-.5.3" transform="translate(-6.3)"/><path id="STROKE_104D69DF-BA56-4822-BF42-0006AFF5BD6E" data-name="STROKE 104D69DF-BA56-4822-BF42-0006AFF5BD6E" class="cls-2" d="M79.6,80.4l-.4.3" transform="translate(-6.3)"/><path id="STROKE_0E00EFCB-31A4-4C19-85C6-8879D13CE2A9" data-name="STROKE 0E00EFCB-31A4-4C19-85C6-8879D13CE2A9" class="cls-2" d="M79.7,80.5l-.5.3" transform="translate(-6.3)"/><path id="STROKE_83653633-BE4F-4565-9D4B-9F18FA6D0358" data-name="STROKE 83653633-BE4F-4565-9D4B-9F18FA6D0358" class="cls-2" d="M79.9,80.8l-.5.2" transform="translate(-6.3)"/><path id="STROKE_AFF7A37D-E8BA-40CB-8B8F-62293E9F3CBF" data-name="STROKE AFF7A37D-E8BA-40CB-8B8F-62293E9F3CBF" class="cls-2" d="M79.8,80.7l-.5.2" transform="translate(-6.3)"/><path id="STROKE_824FDAB0-D2FE-4FF1-8FC3-6E6F227867B4" data-name="STROKE 824FDAB0-D2FE-4FF1-8FC3-6E6F227867B4" class="cls-2" d="M79.9,80.9l-.5.3" transform="translate(-6.3)"/><path id="STROKE_D07D767B-4286-4276-A587-99647AA728E4" data-name="STROKE D07D767B-4286-4276-A587-99647AA728E4" class="cls-2" d="M80,81l-.4.2" transform="translate(-6.3)"/><path id="STROKE_E274C2C0-C1E2-4AED-8794-A90932D219FF" data-name="STROKE E274C2C0-C1E2-4AED-8794-A90932D219FF" class="cls-2" d="M80.2,81.1l-.5.6" transform="translate(-6.3)"/><path id="STROKE_4071D294-11DD-43B1-A844-0194544BB405" data-name="STROKE 4071D294-11DD-43B1-A844-0194544BB405" class="cls-2" d="M80.2,81.3l-.7.4" transform="translate(-6.3)"/><path id="STROKE_BFFB482D-A8EE-4932-B419-9CA52BCE1A17" data-name="STROKE BFFB482D-A8EE-4932-B419-9CA52BCE1A17" class="cls-2" d="M80.4,81.4l-.7.5" transform="translate(-6.3)"/><path id="STROKE_FC60D96C-A4CF-41E0-9294-12E6C5F33A32" data-name="STROKE FC60D96C-A4CF-41E0-9294-12E6C5F33A32" class="cls-2" d="M80.4,81.6l-.9.5" transform="translate(-6.3)"/><path id="STROKE_B62044F6-BC3C-42A9-863D-BC085372F1D5" data-name="STROKE B62044F6-BC3C-42A9-863D-BC085372F1D5" class="cls-2" d="M80.6,81.7l-1,.5" transform="translate(-6.3)"/><path id="STROKE_3432D4F8-21B2-4D11-B027-D2BD62760A7F" data-name="STROKE 3432D4F8-21B2-4D11-B027-D2BD62760A7F" class="cls-2" d="M80.6,81.8l-1.4.7" transform="translate(-6.3)"/><path id="STROKE_1CE3D1CB-C4D8-49AA-A1B8-E4D7E9168969" data-name="STROKE 1CE3D1CB-C4D8-49AA-A1B8-E4D7E9168969" class="cls-2" d="M80.3,82l-.9.5" transform="translate(-6.3)"/><path id="STROKE_39E39035-EF65-40BA-8DCC-0703B40E92BC" data-name="STROKE 39E39035-EF65-40BA-8DCC-0703B40E92BC" class="cls-2" d="M80.7,81.9l-1.5.9" transform="translate(-6.3)"/><path id="STROKE_F943DE5E-DC70-4903-ACF4-38CFCBF52EDF" data-name="STROKE F943DE5E-DC70-4903-ACF4-38CFCBF52EDF" class="cls-2" d="M80.6,81.9,79.1,83" transform="translate(-6.3)"/><path id="STROKE_8D564323-508A-464E-9542-D91DBC1EA549" data-name="STROKE 8D564323-508A-464E-9542-D91DBC1EA549" class="cls-2" d="M56.9,1l.2,2.1" transform="translate(-6.3)"/><path id="STROKE_A20F0437-44DE-4809-821D-C2F4EFA286E7" data-name="STROKE A20F0437-44DE-4809-821D-C2F4EFA286E7" class="cls-2" d="M7.6,84.2l-.1,2.3" transform="translate(-6.3)"/><path id="STROKE_F4383C5E-CCE9-4D49-BE08-E11AF5E7E234" data-name="STROKE F4383C5E-CCE9-4D49-BE08-E11AF5E7E234" class="cls-2" d="M7.4,86.5l4.7.2" transform="translate(-6.3)"/><path id="STROKE_51EF0505-9253-40FA-94B7-DC2DFCD341C0" data-name="STROKE 51EF0505-9253-40FA-94B7-DC2DFCD341C0" class="cls-2" d="M7.8,85.9l1.3-.6" transform="translate(-6.3)"/><path id="STROKE_C6ABC265-34A5-44BA-9D89-9A5A7967CA9E" data-name="STROKE C6ABC265-34A5-44BA-9D89-9A5A7967CA9E" class="cls-2" d="M7.7,86.2l.5-1.3" transform="translate(-6.3)"/><path id="STROKE_B9DF3198-95E1-4F8C-9E18-3E060CF948C0" data-name="STROKE B9DF3198-95E1-4F8C-9E18-3E060CF948C0" class="cls-2" d="M7.5,86.2l.3-1.4" transform="translate(-6.3)"/><path id="STROKE_37C6E256-50FF-42B6-8145-5A520A6576DB" data-name="STROKE 37C6E256-50FF-42B6-8145-5A520A6576DB" class="cls-2" d="M7.6,86.5l1.9-.1" transform="translate(-6.3)"/><path id="STROKE_D4526B25-44FC-488A-BED0-4FA94ADC4E02" data-name="STROKE D4526B25-44FC-488A-BED0-4FA94ADC4E02" class="cls-2" d="M7.9,86.4l1.5-.5" transform="translate(-6.3)"/><path id="STROKE_2D85EAD8-1770-4781-9CA4-3FDBF11443DE" data-name="STROKE 2D85EAD8-1770-4781-9CA4-3FDBF11443DE" class="cls-2" d="M7.9,86.2,9,85.7" transform="translate(-6.3)"/><path id="STROKE_6F34192D-5413-4171-B59F-9E23D20C2837" data-name="STROKE 6F34192D-5413-4171-B59F-9E23D20C2837" class="cls-2" d="M7.9,86.1l1-.5" transform="translate(-6.3)"/><path id="STROKE_801C199E-80C9-43F2-8B6E-C0C825890CFE" data-name="STROKE 801C199E-80C9-43F2-8B6E-C0C825890CFE" class="cls-2" d="M8.3,86.2,9.7,86" transform="translate(-6.3)"/><path id="STROKE_614B0F93-A94E-4FD8-926A-566F5E811440" data-name="STROKE 614B0F93-A94E-4FD8-926A-566F5E811440" class="cls-2" d="M8.2,86.3l1.5-.1" transform="translate(-6.3)"/><path id="STROKE_6905AEE2-F492-412B-9F2D-A9F5AFC1637B" data-name="STROKE 6905AEE2-F492-412B-9F2D-A9F5AFC1637B" class="cls-2" d="M11.6,13.4,8,13.6" transform="translate(-6.3)"/><path id="STROKE_0E9CDC12-E4A6-4395-B683-B7E43542B035" data-name="STROKE 0E9CDC12-E4A6-4395-B683-B7E43542B035" class="cls-2" d="M7.9,13.6v2.9" transform="translate(-6.3)"/><path id="STROKE_5B00E3DC-7E7D-4471-9291-393512955572" data-name="STROKE 5B00E3DC-7E7D-4471-9291-393512955572" class="cls-2" d="M13.3,13.4,8,13.7" transform="translate(-6.3)"/><path id="STROKE_151880C7-7D03-484D-AF8A-663C40E9986B" data-name="STROKE 151880C7-7D03-484D-AF8A-663C40E9986B" class="cls-2" d="M8.1,13.9,8,15.5" transform="translate(-6.3)"/><path id="STROKE_D63176DB-BBF0-4BCF-B33F-FD5AADE40905" data-name="STROKE D63176DB-BBF0-4BCF-B33F-FD5AADE40905" class="cls-2" d="M8.4,13.8l-.1,1.4" transform="translate(-6.3)"/><path id="STROKE_1AE6A489-27A5-4241-8A79-18F1AC4445E7" data-name="STROKE 1AE6A489-27A5-4241-8A79-18F1AC4445E7" class="cls-2" d="M8.6,14v.8" transform="translate(-6.3)"/><path id="STROKE_482DE225-6F21-4587-A2B7-51D68DC963AE" data-name="STROKE 482DE225-6F21-4587-A2B7-51D68DC963AE" class="cls-2" d="M8.8,13.7l-.1.9" transform="translate(-6.3)"/><path id="STROKE_11F630D1-44F2-4681-848C-04F43360F7A8" data-name="STROKE 11F630D1-44F2-4681-848C-04F43360F7A8" class="cls-2" d="M9,13.8v.6" transform="translate(-6.3)"/><path id="STROKE_55969858-7C91-4F07-8F38-6EA26D9B1827" data-name="STROKE 55969858-7C91-4F07-8F38-6EA26D9B1827" class="cls-2" d="M9.1,13.6v.8" transform="translate(-6.3)"/><path id="STROKE_3B40CF17-D428-4B27-BB7B-6B4B03A993FD" data-name="STROKE 3B40CF17-D428-4B27-BB7B-6B4B03A993FD" class="cls-2" d="M9.4,13.7l-.1.6" transform="translate(-6.3)"/><path id="STROKE_F111B90E-DF7F-429D-A447-CC643BDD0704" data-name="STROKE F111B90E-DF7F-429D-A447-CC643BDD0704" class="cls-2" d="M9.5,13.7l-.1.5" transform="translate(-6.3)"/><path id="STROKE_7CF6EEDE-DB66-4636-B080-5F5F0020BA6E" data-name="STROKE 7CF6EEDE-DB66-4636-B080-5F5F0020BA6E" class="cls-2" d="M9.7,13.6l.1.4" transform="translate(-6.3)"/><path id="STROKE_2F4D0423-F84C-4F36-A7F4-763F9B68E1B6" data-name="STROKE 2F4D0423-F84C-4F36-A7F4-763F9B68E1B6" class="cls-2" d="M9.9,13.7l.1.4" transform="translate(-6.3)"/><path id="STROKE_1E39DA50-AF3E-46A2-A8B0-FB3E2C9F7721" data-name="STROKE 1E39DA50-AF3E-46A2-A8B0-FB3E2C9F7721" class="cls-2" d="M8.1,13.9v.9" transform="translate(-6.3)"/><path id="STROKE_7AB26D36-25A7-4132-B700-244473CE68DA" data-name="STROKE 7AB26D36-25A7-4132-B700-244473CE68DA" class="cls-2" d="M13.8,13.1l-5.6.5" transform="translate(-6.3)"/><path id="STROKE_3607B192-EC24-48D1-8220-B84D282ED9CB" data-name="STROKE 3607B192-EC24-48D1-8220-B84D282ED9CB" class="cls-2" d="M80.7,82l-1.6,1" transform="translate(-6.3)"/></g></svg>